<svg width="125" height="56" viewBox="0 0 125 56" fill="none" xmlns="http://www.w3.org/2000/svg">
<rect width="125" height="56" fill="#FCFCFB"/>
<path d="M71.84 20.61C71.3292 20.099 70.7228 19.6936 70.0554 19.4171C69.3879 19.1405 68.6725 18.9982 67.95 18.9982C67.2275 18.9982 66.5121 19.1405 65.8446 19.4171C65.1772 19.6936 64.5708 20.099 64.06 20.61L63 21.67L61.94 20.61C60.9083 19.5783 59.509 18.9987 58.05 18.9987C56.591 18.9987 55.1917 19.5783 54.16 20.61C53.1283 21.6417 52.5487 23.041 52.5487 24.5C52.5487 25.959 53.1283 27.3583 54.16 28.39L55.22 29.45L63 37.23L70.78 29.45L71.84 28.39C72.351 27.8792 72.7563 27.2728 73.0329 26.6054C73.3095 25.9379 73.4518 25.2225 73.4518 24.5C73.4518 23.7775 73.3095 23.0621 73.0329 22.3946C72.7563 21.7272 72.351 21.1208 71.84 20.61V20.61Z" stroke="#979C9E" stroke-width="1.5" stroke-linecap="round" stroke-linejoin="round"/>
</svg>
